<?xml version="1.0" encoding="UTF-8"?>
<svg width="1462px" height="808px" viewBox="0 0 1462 808" version="1.1" xmlns="http://www.w3.org/2000/svg" xmlns:xlink="http://www.w3.org/1999/xlink">

    <defs></defs>
    <g id="Homepage" stroke="none" stroke-width="1" fill="none" fill-rule="evenodd">
        <g id="Group-3">
            <polygon id="Clip-2" points="68 172 994 172 994 689 68 689"></polygon>
            <path d="M1270.67134,0 C1182.26265,0 1113.63337,65.9300763 1113.63337,152.609953 C1113.63337,235.79319 1173.21106,298.226626 1254.43594,298.226626 C1341.02473,298.226626 1402.42231,237.587519 1402.42231,154.312265 C1402.42231,104.025054 1384.36702,71.1290286 1341.02473,34.6903542 C1411.47391,76.2819724 1440.3528,126.615192 1440.3528,197.698212 C1440.3528,258.383328 1415.06581,327.764036 1346.48442,454.287211 C1299.59813,539.264776 1270.67134,591.300307 1261.71553,610.347796 C1254.43594,622.448013 1245.38435,639.79319 1234.56075,664.131648 L998.213581,98.8261018 C989.114096,76.2819724 985.522193,67.5863797 985.522193,62.4794443 C985.522193,45.0882587 1001.75759,38.0949778 1045.05199,34.6903542 L1081.16258,31.2397221 L1117.27317,27.7430817 L1117.27317,13.8485366 C996.345792,19.0474889 945.771809,20.7958091 871.826514,20.7958091 C797.785436,20.7958091 747.259344,19.0474889 624.512071,13.8485366 L805.017132,473.3347 L714.788548,664.131648 L490.9412,97.12379 L481.889606,72.8313404 C480.117601,69.3346999 480.117601,69.3346999 480.117601,62.4794443 C480.117601,45.0882587 503.584696,36.4386744 575.805877,31.2397221 L610.048678,27.7430817 L610.048678,13.8485366 C462.062306,19.0474889 404.304517,19.0474889 290.608838,19.0474889 C176.913159,20.7958091 128.206964,19.0474889 0,13.8485366 L0,29.4914019 L32.4707963,32.9880424 C43.3422872,32.9880424 54.213778,34.6903542 66.8093819,34.6903542 C84.8167851,36.4386744 97.4602811,39.8893065 106.511875,45.0882587 C117.335474,51.9895228 119.155371,53.7838515 137.162774,98.8261018 L416.948013,808 L676.905952,808 L814.068726,497.673158 L936.768107,808 L1194.85826,808 C1241.79245,688.378089 1254.43594,660.681016 1346.48442,497.673158 C1433.169,341.566564 1462,267.07892 1462,194.201572 C1462,91.9248377 1371.77142,0 1270.67134,0 M1258.02784,277.430817 C1226.22754,277.430817 1216.55335,248.031431 1216.55335,149.757431 C1216.55335,97.9059333 1218.80427,71.175037 1225.12602,49.9191436 C1230.25047,31.8838401 1242.12769,21.531944 1258.02784,21.531944 C1288.67874,21.531944 1297.20352,50.4712447 1297.20352,149.757431 C1297.20352,249.043617 1288.67874,277.430817 1258.02784,277.430817" id="Fill-1" fill-opacity="1" fill="#000000"></path>
        </g>
    </g>
</svg>